<?xml version="1.0" standalone="no"?>
<!DOCTYPE svg PUBLIC "-//W3C//DTD SVG 20010904//EN"
 "http://www.w3.org/TR/2001/REC-SVG-20010904/DTD/svg10.dtd">
<svg version="1.0" xmlns="http://www.w3.org/2000/svg"
 width="192.000000pt" height="192.000000pt" viewBox="0 0 192.000000 192.000000"
 preserveAspectRatio="xMidYMid meet">
<metadata>
Created by potrace 1.14, written by Peter Selinger 2001-2017
</metadata>
<g transform="translate(0.000000,192.000000) scale(0.100000,-0.100000)"
fill="#000000" stroke="none">
<path d="M940 1852 c-204 -15 -338 -85 -474 -246 -32 -38 -80 -138 -101 -210
-21 -73 -25 -213 -8 -291 39 -170 167 -336 322 -415 101 -51 166 -65 291 -64
111 1 177 17 274 67 359 185 441 669 165 964 -49 52 -126 113 -149 119 -3 0
-27 11 -55 24 -56 26 -101 39 -160 46 -22 3 -47 6 -55 7 -8 1 -31 1 -50 -1z
m130 -254 c66 -21 111 -49 163 -102 144 -148 137 -389 -15 -532 -49 -45 -134
-92 -146 -79 -4 4 -7 58 -7 122 l-1 115 41 19 c58 28 73 42 89 80 26 64 -6
114 -79 124 -45 6 -84 -51 -91 -132 -3 -32 -6 -59 -8 -60 -3 -3 -78 -7 -103
-5 -20 2 -23 7 -23 50 -1 103 -59 166 -127 137 -88 -37 -63 -147 43 -196 l44
-19 0 -121 c0 -120 0 -120 -22 -113 -72 22 -171 110 -206 183 -143 295 139
628 448 529z m-239 -320 c6 -10 13 -39 16 -63 6 -51 -5 -57 -47 -28 -51 35
-63 72 -34 104 18 20 50 14 65 -13z m327 5 c6 -10 6 -27 1 -42 -10 -28 -74
-75 -89 -66 -11 7 -5 78 10 105 13 25 65 27 78 3z m-137 -183 c1 -9 1 -194 0
-218 -1 -22 -4 -23 -63 -20 l-63 3 -3 109 c-2 59 -1 114 1 121 5 12 126 17
128 5z"/>
<path d="M620 522 c-14 -2 -30 -8 -36 -13 -19 -15 -22 -55 -7 -75 13 -18 33
-19 390 -19 375 1 375 1 393 23 20 24 17 54 -8 74 -12 10 -94 13 -361 13 -190
0 -357 -2 -371 -3z"/>
<path d="M646 335 c-27 -13 -33 -66 -10 -85 23 -20 651 -18 669 2 21 22 26 53
11 74 -14 18 -29 19 -332 19 -198 0 -325 -4 -338 -10z"/>
<path d="M733 167 c-8 -14 39 -73 69 -86 19 -9 77 -13 167 -13 111 0 145 3
175 17 36 17 74 70 61 83 -10 10 -466 9 -472 -1z"/>
</g>
</svg>
